:SAMPLES-PER-SECOND 30
:FULLY-SPECIFIED
:DEGREES
587
root  -83.8685 40.5931 -1.82848 -158.015 -78.8376 158.454
RightUpLeg  -11.8371 -2.65081 -5.70685
RightLeg  18.6037 5.29597 1.82172
RightFoot  -9.53148 -0.139369 4.73422
RightToes  -3.0268e-009 0 -3.6325e-017
Spine  6.04329 -0.420618 -4.47353
Spine1  2.65063 -0.186812 -2.02287
HEad  -21.7428 -25.2115 10.6432
LeftShoulder1  -0.399463 4.52499 -32.946
LeftArm  3.45612 10.8719 -35.0227
LeftForeArm  22.8639 -29.3898 -5.05229
LeftHand  -0.0841026 8.56139 -1.27213
RightShoulder  -1.54698 -7.42015 33.0119
RightArm  15.9156 -7.33202 41.9559
RightForeArm  17.6774 10.5045 6.8198
RightHand  -0.0768097 3.78859 -1.24345
LeftUpLeg  -8.08205 6.68064 -0.163674
LeftLeg  9.4824 -0.066711 -2.09677
LeftFoot  -3.01168 -0.0301342 0.668749
LeftToes  2.52475e-009 -1.26109e-010 3.16044e-011
588
root  -83.8831 40.4638 -1.81321 -159.956 -76.4369 159.882
RightUpLeg  -13.5879 -5.83326 -6.12851
RightLeg  22.138 5.50447 2.24121
RightFoot  -10.848 -0.106829 7.14075
RightToes  -3.0268e-009 0 -3.6325e-017
Spine  6.32735 -0.946766 -5.77143
Spine1  3.98654 -0.689234 -2.52266
HEad  -23.0511 -23.5945 11.4381
LeftShoulder1  -0.518202 4.83289 -32.8892
LeftArm  5.03257 9.5154 -34.8958
LeftForeArm  20.0281 -23.0263 -4.40319
LeftHand  -0.094458 9.29281 -1.24017
RightShoulder  -1.59739 -7.49931 33.3936
RightArm  14.8344 -5.58047 42.7878
RightForeArm  17.6044 10.6599 6.53405
RightHand  -0.0451671 2.52567 -0.865665
LeftUpLeg  -7.97388 7.18376 -0.35746
LeftLeg  10.9967 1.76801 -2.0975
LeftFoot  -4.13223 -0.0149803 0.625302
LeftToes  2.52475e-009 -1.26109e-010 3.16044e-011
589
root  -83.8836 40.4327 -1.82428 -162.735 -73.906 162.975
RightUpLeg  -16.0717 -8.99463 -5.68545
RightLeg  24.7744 3.94267 1.76874
RightFoot  -10.9466 -0.101387 7.93166
RightToes  -3.0268e-009 0 -3.6325e-017
Spine  6.22318 -1.31143 -6.09134
Spine1  5.10333 -0.829824 -3.45305
HEad  -25.155 -21.4711 13.0414
LeftShoulder1  -0.567071 4.99687 -31.7679
LeftArm  -0.0594227 8.12774 -35.7837
LeftForeArm  24.1918 -15.522 -5.94773
LeftHand  -0.0774107 9.77667 -0.630877
RightShoulder  -1.91865 -8.03722 35.796
RightArm  15.6127 -2.76911 41.9802
RightForeArm  15.2759 11.0576 6.69741
RightHand  -0.0891204 4.0984 -1.36205
LeftUpLeg  -8.18136 7.616 -0.0947141
LeftLeg  11.4685 3.85253 -1.95298
LeftFoot  -4.63828 0.0162039 0.214449
LeftToes  2.52475e-009 -1.26109e-010 3.16044e-011
590
root  -83.9553 40.5287 -1.80884 -166.144 -71.5808 165.837
RightUpLeg  -16.9967 -11.313 -5.22874
RightLeg  25.9581 1.40891 0.527315
RightFoot  -10.2455 -0.121697 5.61884
RightToes  -3.0268e-009 0 -3.6325e-017
Spine  7.49898 -1.29455 -4.61201
Spine1  5.16165 -0.489692 -4.86543
HEad  -26.3239 -20.043 13.4608
LeftShoulder1  -0.393705 4.56907 -30.8564
LeftArm  -8.02016 7.81194 -37.1021
LeftForeArm  31.9554 -8.96333 -6.6521
LeftHand  -0.135057 10.545 -1.53133
RightShoulder  -1.82789 -7.85281 35.4753
RightArm  15.6226 -3.30401 42.9601
RightForeArm  12.713 13.1535 6.09205
RightHand  -0.147458 4.28828 -2.04929
LeftUpLeg  -6.53266 7.8561 0.335719
LeftLeg  10.3332 5.84304 -1.66162
LeftFoot  -4.4241 0.0280875 0.0537019
LeftToes  2.52475e-009 -1.26109e-010 3.16044e-011
591
root  -84.0234 40.5776 -1.85971 -168.313 -69.3079 168.446
RightUpLeg  -18.6971 -13.1251 -4.45906
RightLeg  26.129 -1.03837 -0.769959
RightFoot  -9.59253 -0.127992 4.03066
RightToes  -3.0268e-009 0 -3.6325e-017
Spine  7.53998 -1.26663 -4.80249
Spine1  5.49447 -0.762207 -3.46721
HEad  -25.0119 -14.8362 11.6536
LeftShoulder1  -0.340422 4.41693 -31.1487
LeftArm  -10.5227 8.87864 -38.8399
LeftForeArm  34.7039 -6.41549 -5.31462
LeftHand  -0.295232 11.2872 -4.45428
RightShoulder  -1.67492 -7.59597 34.39
RightArm  17.859 -2.73729 43.6315
RightForeArm  9.59012 15.3319 5.794
RightHand  -0.199651 4.82741 -2.56094
LeftUpLeg  -6.33182 8.04785 0.816241
LeftLeg  10.0154 7.92611 -1.23108
LeftFoot  -4.49192 0.0508979 -0.29908
LeftToes  2.52475e-009 -1.26109e-010 3.16044e-011
